<svg width="512" height="512" viewBox="0 0 512 512" fill="none" xmlns="http://www.w3.org/2000/svg">
<path d="M256 483.556C242.126 483.57 228.492 479.941 216.462 473.031L87.8932 398.222C75.9643 391.303 66.0443 381.394 59.1112 369.473C52.178 357.552 48.471 344.03 48.3555 330.24V181.76C48.471 167.97 52.178 154.448 59.1112 142.527C66.0443 130.606 75.9643 120.697 87.8932 113.778L215.893 39.5378C227.924 32.6252 241.556 28.9875 255.431 28.9875C269.306 28.9875 282.938 32.6252 294.969 39.5378L422.969 113.778C434.981 120.746 444.954 130.744 451.892 142.774C458.83 154.803 462.49 168.442 462.507 182.329V330.24C462.508 343.92 458.973 357.369 452.245 369.28C445.517 381.192 435.824 391.161 424.107 398.222L296.107 472.462C283.968 479.674 270.119 483.505 256 483.556V483.556ZM232.249 66.4178L104.249 140.658C97.0425 144.835 91.0571 150.828 86.8897 158.04C82.7223 165.252 80.5183 173.431 80.4977 181.76V330.24C80.5183 338.569 82.7223 346.748 86.8897 353.96C91.0571 361.172 97.0425 367.165 104.249 371.342L232.249 445.582C239.475 449.738 247.664 451.924 256 451.924C264.335 451.924 272.525 449.738 279.751 445.582L407.751 371.342C414.957 367.165 420.943 361.172 425.11 353.96C429.278 346.748 431.482 338.569 431.502 330.24V181.76C431.482 173.431 429.278 165.252 425.11 158.04C420.943 150.828 414.957 144.835 407.751 140.658L279.751 66.4178C272.525 62.2624 264.335 60.0756 256 60.0756C247.664 60.0756 239.475 62.2624 232.249 66.4178V66.4178Z" fill="#777777"/>
<path d="M256 343.04C238.785 343.04 221.957 337.935 207.643 328.371C193.33 318.807 182.173 305.213 175.586 289.309C168.998 273.404 167.274 255.903 170.632 239.019C173.991 222.135 182.281 206.626 194.453 194.453C206.626 182.281 222.135 173.991 239.019 170.632C255.903 167.274 273.404 168.998 289.309 175.586C305.213 182.173 318.807 193.33 328.371 207.643C337.935 221.957 343.04 238.785 343.04 256C343.002 279.073 333.82 301.19 317.505 317.505C301.19 333.82 279.073 343.002 256 343.04ZM256 200.818C245.052 200.818 234.35 204.066 225.249 210.152C216.148 216.237 209.057 224.886 204.873 235.003C200.69 245.121 199.603 256.252 201.749 266.988C203.895 277.724 209.179 287.581 216.93 295.313C224.682 303.044 234.553 308.302 245.294 310.421C256.035 312.54 267.164 311.424 277.27 307.214C287.377 303.005 296.008 295.892 302.07 286.775C308.132 277.659 311.353 266.948 311.324 256C311.287 241.339 305.446 227.288 295.079 216.921C284.712 206.554 270.661 200.713 256 200.676V200.818Z" fill="#777777"/>
</svg>
