<svg id="Capa_1" enable-background="new 0 0 512 512" height="512" viewBox="0 0 512 512" width="512" xmlns="http://www.w3.org/2000/svg"><g><g><path d="m241 451v9.95c-101.382-7.349-182.601-88.568-189.95-189.95h9.95c8.284 0 15-6.716 15-15s-6.716-15-15-15h-9.95c7.349-101.382 88.568-182.601 189.95-189.95v9.95c0 8.284 6.716 15 15 15l4-39.44-4-36.56c-8.284 0-15 6.716-15 15v5.991c-117.929 7.451-212.558 102.08-220.009 220.009h-5.991c-8.284 0-15 6.716-15 15s6.716 15 15 15h5.991c7.451 117.929 102.08 212.558 220.009 220.009v5.991c0 8.284 6.716 15 15 15l5-36.669-5-39.331c-8.284 0-15 6.716-15 15z" fill="#e63950"/><path d="m497 241h-5.991c-7.451-117.929-102.08-212.558-220.009-220.009v-5.991c0-8.284-6.716-15-15-15v76c8.284 0 15-6.716 15-15v-9.95c101.382 7.349 182.601 88.568 189.95 189.95h-9.95c-8.284 0-15 6.716-15 15s6.716 15 15 15h9.95c-7.349 101.382-88.568 182.601-189.95 189.95v-9.95c0-8.284-6.716-15-15-15v76c8.284 0 15-6.716 15-15v-5.991c117.929-7.451 212.558-102.08 220.009-220.009h5.991c8.284 0 15-6.716 15-15s-6.716-15-15-15z" fill="#cd0000"/></g><g><g fill="#182084"><path d="m391 310c0 8.28-6.72 15-15 15s-15-6.72-15-15c0-4.5-3.66-8.21-8.17-8.26l-11.83-.13v-30l12.17.14c20.86.23 37.83 17.39 37.83 38.25z"/><path d="m360.52 383.25c-.115 7.886-6.388 14.77-15.22 14.77-8.29-.12-14.9-6.94-14.77-15.22l.02-1.53c.123-7.543-5.915-13.708-13.43-13.77 7.33-7.57 13.25-16.5 17.36-26.36 5.01 2.19 9.6 5.34 13.56 9.36 14.728 14.96 12.316 31.808 12.48 32.75z"/><path d="m376 202.49c0 21.38-14.99 39.33-35 43.88-.38-13.401 1.101-20.384-2.15-31.09 4.29-2.65 7.15-7.39 7.15-12.78 0-8.28 6.72-15.01 15-15.01s15 6.71 15 15z"/></g><path d="m171 271.59v30l-13.83.15c-4.51.05-8.17 3.76-8.17 8.26 0 8.28-6.72 15-15 15s-15-6.72-15-15c0-20.86 16.97-38.02 37.83-38.25z" fill="#393d9d"/><path d="m194.77 367.39c-2.158.26-6.941-.392-11.43 4.15-4.68 4.771-3.784 10.691-3.87 11.26.131 8.367-6.62 15.23-15 15.23-8.18 0-14.87-6.57-14.99-14.78l-.03-1.52c-.293-19.158 11.707-35.086 27.77-41.29 4.11 10.09 10.11 19.22 17.55 26.95z" fill="#393d9d"/><path d="m172.88 216.19c-2.863 10.103-1.53 16.482-1.88 30.6-21.01-3.79-37-22.21-37-44.29 0-8.28 6.72-15.01 15-15.01s15 6.71 15 15c0 6.1 3.65 11.36 8.88 13.7z" fill="#393d9d"/><path d="m315.61 134.61-11.77 11.77c-5.03-8.84-12.45-16.16-21.36-21.08l11.91-11.91c5.86-5.85 15.36-5.85 21.22 0 5.85 5.86 5.85 15.36 0 21.22z" fill="#061266"/><path d="m229.52 125.3c-8.91 4.92-16.33 12.24-21.36 21.08l-11.77-11.77c-5.85-5.86-5.85-15.36 0-21.22 5.86-5.85 15.36-5.85 21.22 0z" fill="#182084"/><path d="m221.328 179.5h69.344c9.231 0 17.883 2.51 25.328 6.865v-12.865c0-33.084-26.916-60-60-60s-60 26.916-60 60v12.865c7.446-4.355 16.097-6.865 25.328-6.865z" fill="#393d9d"/><path d="m316 173.5v12.87c-7.45-4.36-16.1-6.87-25.33-6.87h-34.67v-66c33.08 0 60 26.92 60 60z" fill="#182084"/><path d="m221.328 174.5c-30.508 0-55.328 24.82-55.328 55.328v78.672c0 49.626 40.374 90 90 90v-224z" fill="#ff637b"/><path d="m290.672 174.5h-34.672v224c49.626 0 90-40.374 90-90v-78.672c0-30.508-24.82-55.328-55.328-55.328z" fill="#e63950"/></g></g></svg>