<svg width="321" height="350" viewBox="0 0 321 350" fill="none" xmlns="http://www.w3.org/2000/svg">
<path d="M263.981 350H58.198C43.0559 349.971 28.5421 343.821 17.835 332.896C7.12785 321.971 1.10012 307.162 1.07179 291.712C1.07179 268.31 0 157.421 0 136.097C0.030323 122.146 3.53858 108.432 10.1947 96.2457C16.8508 84.0594 26.436 73.8011 38.0484 66.4361L130.008 8.69531C139.006 3.0112 149.38 0 159.964 0C170.548 0 180.922 3.0112 189.92 8.69531L281.88 66.4361C293.547 73.7132 303.179 83.9371 309.844 96.1204C316.508 108.304 319.982 122.035 319.928 135.987C319.928 157.312 321 268.201 321 291.603C321.014 299.258 319.55 306.84 316.692 313.917C313.835 320.994 309.639 327.428 304.344 332.851C299.049 338.273 292.759 342.579 285.834 345.521C278.909 348.464 271.483 349.986 263.981 350V350ZM160.018 23.3492C153.655 23.3608 147.42 25.1783 142.012 28.5984L50.0524 86.3391C41.7637 91.5833 34.917 98.8907 30.1551 107.575C25.3932 116.26 22.8723 126.036 22.829 135.987C22.829 157.312 23.9008 268.201 23.9008 291.603C23.9008 300.884 27.5143 309.785 33.9462 316.348C40.3782 322.911 49.1018 326.598 58.198 326.598H263.981C273.077 326.598 281.801 322.911 288.233 316.348C294.665 309.785 298.278 300.884 298.278 291.603C298.278 268.201 297.206 157.312 297.206 135.987C297.235 126.022 294.744 116.218 289.975 107.521C285.207 98.824 278.321 91.5286 269.983 86.3391L177.916 28.5984C172.541 25.1925 166.345 23.3753 160.018 23.3492V23.3492Z" fill="#4B4B4B" fill-opacity="0.72"/>
<path d="M206.325 280.011H114.794C111.958 279.73 109.325 278.382 107.41 276.229C105.495 274.076 104.434 271.272 104.434 268.365C104.434 265.457 105.495 262.653 107.41 260.5C109.325 258.347 111.958 256.999 114.794 256.718H206.218C207.81 256.56 209.416 256.744 210.934 257.258C212.452 257.772 213.849 258.603 215.033 259.7C216.217 260.797 217.163 262.135 217.811 263.627C218.459 265.119 218.793 266.733 218.793 268.365C218.793 269.996 218.459 271.61 217.811 273.103C217.163 274.595 216.217 275.932 215.033 277.029C213.849 278.126 212.452 278.958 210.934 279.471C209.416 279.985 207.81 280.169 206.218 280.011H206.325Z" fill="#4B4B4B" fill-opacity="0.72"/>
</svg>
