<svg width="490" height="490" viewBox="0 0 490 490" fill="none" xmlns="http://www.w3.org/2000/svg">
<g clip-path="url(#clip0_2_23)">
<path d="M25.383 290.5C18.183 213 51.283 142.8 106.183 98.2C127.583 80.8 159.583 95.7 159.583 123.2C159.583 133.3 154.783 142.6 146.983 148.9C108.083 180.6 84.683 230.6 90.383 285.8C97.783 357.7 155.383 415.9 227.183 423.9C320.883 434.4 400.483 361 400.483 269.4C400.483 220.8 377.983 177.3 342.883 148.8C335.083 142.5 330.383 133.2 330.383 123.2C330.383 96 361.883 80.6 383.083 97.6C433.283 138.1 465.483 200 465.483 269.4C465.483 396.3 357.683 498.6 228.783 489.3C122.183 481.8 35.283 396.9 25.383 290.5ZM244.883 0C226.883 0 212.383 14.6 212.383 32.5V182.2C212.383 200.2 226.983 214.7 244.883 214.7C262.783 214.7 277.383 200.1 277.383 182.2V32.5C277.383 14.6 262.883 0 244.883 0Z" fill="#2FBF4F"/>
</g>
<defs>
<clipPath id="clip0_2_23">
<rect width="489.888" height="489.888" fill="white"/>
</clipPath>
</defs>
</svg>
