<svg width="512" height="512" viewBox="0 0 512 512" fill="none" xmlns="http://www.w3.org/2000/svg">
<g clip-path="url(#clip0_18_46)">
<path d="M410.4 512H103.2C80.5956 511.958 58.9289 502.959 42.945 486.975C26.961 470.991 17.9626 449.325 17.9203 426.72C17.9203 392.48 16.3203 230.24 16.3203 199.04C16.3656 178.628 21.6028 158.564 31.5393 140.734C41.4758 122.905 55.7849 107.896 73.1203 97.12L210.4 12.64C223.834 4.32363 239.321 -0.0820389 255.12 -0.0820389C270.92 -0.0820389 286.407 4.32363 299.84 12.64L437.12 97.12C454.538 107.767 468.916 122.726 478.866 140.551C488.815 158.376 494 178.466 493.92 198.88C493.92 230.08 495.52 392.32 495.52 426.56C495.541 437.759 493.356 448.853 489.09 459.207C484.824 469.562 478.56 478.975 470.656 486.909C462.751 494.843 453.362 501.142 443.023 505.447C432.685 509.752 421.599 511.979 410.4 512V512ZM255.2 34.08C245.701 34.097 236.394 36.7561 228.32 41.76L91.0403 126.24C78.6666 133.913 68.4456 144.604 61.3369 157.31C54.2281 170.016 50.4649 184.321 50.4003 198.88C50.4003 230.08 52.0003 392.32 52.0003 426.56C52.0003 440.139 57.3946 453.162 66.9964 462.764C76.5983 472.366 89.6212 477.76 103.2 477.76H410.4C423.979 477.76 437.002 472.366 446.604 462.764C456.206 453.162 461.6 440.139 461.6 426.56C461.6 392.32 460 230.08 460 198.88C460.043 184.3 456.325 169.955 449.206 157.231C442.087 144.506 431.808 133.833 419.36 126.24L281.92 41.76C273.896 36.7768 264.646 34.1182 255.2 34.08V34.08Z" fill="#777777"/>
<path d="M324.32 409.6H187.68C183.445 409.189 179.516 407.217 176.656 404.066C173.797 400.916 172.213 396.814 172.213 392.56C172.213 388.306 173.797 384.204 176.656 381.054C179.516 377.903 183.445 375.931 187.68 375.52H324.16C326.536 375.289 328.935 375.559 331.201 376.31C333.467 377.061 335.551 378.279 337.319 379.883C339.087 381.488 340.5 383.445 341.467 385.628C342.433 387.811 342.933 390.172 342.933 392.56C342.933 394.948 342.433 397.309 341.467 399.492C340.5 401.675 339.087 403.632 337.319 405.237C335.551 406.841 333.467 408.059 331.201 408.81C328.935 409.561 326.536 409.831 324.16 409.6H324.32Z" fill="#777777"/>
</g>
<defs>
<clipPath id="clip0_18_46">
<rect width="512" height="512" fill="white"/>
</clipPath>
</defs>
</svg>
