<svg width="490" height="490" viewBox="0 0 490 490" fill="none" xmlns="http://www.w3.org/2000/svg">
<g clip-path="url(#clip0_19_71)">
<path d="M25.3827 290.5C18.1827 213 51.2827 142.8 106.183 98.1999C127.583 80.7999 159.583 95.6999 159.583 123.2C159.583 133.3 154.783 142.6 146.983 148.9C108.083 180.6 84.6827 230.6 90.3827 285.8C97.7827 357.7 155.383 415.9 227.183 423.9C320.883 434.4 400.483 361 400.483 269.4C400.483 220.8 377.983 177.3 342.883 148.8C335.083 142.5 330.383 133.2 330.383 123.2C330.383 95.9999 361.883 80.5999 383.083 97.5999C433.283 138.1 465.483 200 465.483 269.4C465.483 396.3 357.683 498.6 228.783 489.3C122.183 481.8 35.2827 396.9 25.3827 290.5Z" fill="#2FBF4F"/>
<rect x="185" y="39" width="121" height="32" rx="16" fill="#2FBF4F"/>
<rect x="185" y="157" width="121" height="32" rx="16" fill="#2FBF4F"/>
<rect x="179.903" y="174.697" width="175.415" height="32" rx="16" transform="rotate(-52.7066 179.903 174.697)" fill="#2FBF4F"/>
</g>
<defs>
<clipPath id="clip0_19_71">
<rect width="489.888" height="489.888" fill="white"/>
</clipPath>
</defs>
</svg>
