<?xml version="1.0" encoding="UTF-8"?>
<svg xmlns="http://www.w3.org/2000/svg" id="Layer_1" data-name="Layer 1" viewBox="0 0 36 36" width="512" height="512"><path d="M15.87,16.93H7.33A5.33,5.33,0,0,1,2,11.6V7.33A5.33,5.33,0,0,1,7.33,2H11.6a5.33,5.33,0,0,1,5.33,5.33v8.53A1.07,1.07,0,0,1,15.87,16.93ZM7.33,4.13a3.2,3.2,0,0,0-3.2,3.2V11.6a3.2,3.2,0,0,0,3.2,3.2H14.8V7.33a3.2,3.2,0,0,0-3.2-3.2Z"/><path d="M28.67,16.93H20.13a1.07,1.07,0,0,1-1.07-1.07V7.33A5.33,5.33,0,0,1,24.4,2h4.27A5.33,5.33,0,0,1,34,7.33V11.6a5.33,5.33,0,0,1-5.33,5.33ZM21.2,14.8h7.47a3.2,3.2,0,0,0,3.2-3.2V7.33a3.2,3.2,0,0,0-3.2-3.2H24.4a3.2,3.2,0,0,0-3.2,3.2Z"/><path d="M11.6,34H7.33A5.33,5.33,0,0,1,2,28.67V24.4a5.33,5.33,0,0,1,5.33-5.33h8.53a1.07,1.07,0,0,1,1.07,1.07v8.53A5.33,5.33,0,0,1,11.6,34ZM7.33,21.2a3.2,3.2,0,0,0-3.2,3.2v4.27a3.2,3.2,0,0,0,3.2,3.2H11.6a3.2,3.2,0,0,0,3.2-3.2V21.2Z"/><path d="M28.67,34H24.4a5.33,5.33,0,0,1-5.33-5.33V20.13a1.07,1.07,0,0,1,1.07-1.07h8.53A5.33,5.33,0,0,1,34,24.4v4.27A5.33,5.33,0,0,1,28.67,34ZM21.2,21.2v7.47a3.2,3.2,0,0,0,3.2,3.2h4.27a3.2,3.2,0,0,0,3.2-3.2V24.4a3.2,3.2,0,0,0-3.2-3.2Z"/></svg>
