<svg width="321" height="350" viewBox="0 0 321 350" fill="none" xmlns="http://www.w3.org/2000/svg">
<path d="M160.941 350C150.188 350.011 139.62 347.217 130.296 341.897L30.6449 284.297C21.399 278.969 13.7103 271.34 8.33654 262.161C2.96279 252.982 0.0895483 242.571 0 231.953V117.629C0.0895483 107.011 2.96279 96.5998 8.33654 87.421C13.7103 78.2423 21.399 70.613 30.6449 65.2853L129.855 8.12333C139.18 2.80089 149.746 0 160.5 0C171.254 0 181.82 2.80089 191.145 8.12333L290.355 65.2853C299.665 70.6506 307.395 78.3488 312.773 87.6109C318.15 96.873 320.987 107.375 321 118.067V231.953C321.001 242.486 318.262 252.841 313.047 262.012C307.832 271.184 300.319 278.86 291.237 284.297L192.027 341.459C182.618 347.012 171.885 349.961 160.941 350V350ZM142.532 28.8199L43.3218 85.9819C37.7363 89.1981 33.0972 93.8127 29.8671 99.3657C26.637 104.919 24.9288 111.216 24.9128 117.629V231.953C24.9288 238.366 26.637 244.663 29.8671 250.216C33.0972 255.769 37.7363 260.384 43.3218 263.6L142.532 320.762C148.133 323.961 154.48 325.645 160.941 325.645C167.402 325.645 173.749 323.961 179.35 320.762L278.56 263.6C284.146 260.384 288.785 255.769 292.015 250.216C295.245 244.663 296.953 238.366 296.969 231.953V117.629C296.953 111.216 295.245 104.919 292.015 99.3657C288.785 93.8127 284.146 89.1981 278.56 85.9819L179.35 28.8199C173.749 25.6205 167.402 23.9367 160.941 23.9367C154.48 23.9367 148.133 25.6205 142.532 28.8199V28.8199Z" fill="#4B4B4B" fill-opacity="0.72"/>
<path d="M160.938 241.807C147.596 241.807 134.552 237.876 123.458 230.512C112.364 223.148 103.717 212.682 98.6109 200.436C93.5048 188.19 92.1688 174.715 94.7719 161.715C97.375 148.715 103.8 136.773 113.235 127.401C122.67 118.028 134.691 111.645 147.777 109.06C160.864 106.474 174.428 107.801 186.755 112.873C199.083 117.946 209.619 126.535 217.032 137.556C224.445 148.577 228.401 161.535 228.401 174.789C228.372 192.555 221.255 209.584 208.61 222.146C195.964 234.708 178.822 241.778 160.938 241.807ZM160.938 132.301C152.453 132.301 144.158 134.802 137.104 139.488C130.05 144.173 124.554 150.833 121.311 158.623C118.069 166.413 117.226 174.983 118.89 183.25C120.553 191.516 124.648 199.106 130.656 205.059C136.664 211.012 144.315 215.06 152.641 216.691C160.966 218.323 169.591 217.463 177.425 214.222C185.258 210.981 191.948 205.505 196.646 198.485C201.345 191.466 203.841 183.219 203.819 174.789C203.79 163.501 199.263 152.682 191.228 144.7C183.192 136.718 172.302 132.221 160.938 132.192V132.301Z" fill="#4B4B4B" fill-opacity="0.72"/>
</svg>
