<svg id="Layer_1" height="512" viewBox="0 0 36 36" width="512" xmlns="http://www.w3.org/2000/svg" data-name="Layer 1"><path d="m18 34a5.57 5.57 0 0 1 -2.78-.74l-9.04-5.26a5.58 5.58 0 0 1 -2.78-4.78v-10.44a5.58 5.58 0 0 1 2.78-4.78l9-5.22a5.58 5.58 0 0 1 5.56 0l9 5.22a5.58 5.58 0 0 1 2.78 4.82v10.4a5.58 5.58 0 0 1 -2.7 4.78l-9 5.22a5.56 5.56 0 0 1 -2.82.78zm-1.67-29.33-9 5.22a3.35 3.35 0 0 0 -1.67 2.89v10.44a3.35 3.35 0 0 0 1.67 2.89l9 5.22a3.35 3.35 0 0 0 3.34 0l9-5.22a3.35 3.35 0 0 0 1.67-2.89v-10.44a3.35 3.35 0 0 0 -1.67-2.89l-9-5.22a3.35 3.35 0 0 0 -3.34 0z"/><path d="m18 24.12a6.12 6.12 0 1 1 6.12-6.12 6.13 6.13 0 0 1 -6.12 6.12zm0-10a3.89 3.89 0 1 0 3.89 3.88 3.9 3.9 0 0 0 -3.89-3.89z"/></svg>