<svg id="Layer_1" height="512" viewBox="0 0 32 32" width="512" xmlns="http://www.w3.org/2000/svg" data-name="Layer 1"><path d="m25.65 32h-19.2a5.34 5.34 0 0 1 -5.33-5.33c0-2.14-.1-12.28-.1-14.23a7.52 7.52 0 0 1 3.55-6.37l8.58-5.28a5.31 5.31 0 0 1 5.59 0l8.58 5.28a7.42 7.42 0 0 1 3.55 6.36c0 1.95.1 12.09.1 14.23a5.33 5.33 0 0 1 -5.32 5.34zm-9.7-29.87a3.2 3.2 0 0 0 -1.68.48l-8.58 5.28a5.37 5.37 0 0 0 -2.54 4.54c0 1.95.1 12.09.1 14.23a3.2 3.2 0 0 0 3.2 3.2h19.2a3.2 3.2 0 0 0 3.2-3.2c0-2.14-.1-12.28-.1-14.23a5.3 5.3 0 0 0 -2.54-4.54l-8.59-5.28a3.19 3.19 0 0 0 -1.67-.48z"/><path d="m20.27 25.6h-8.54a1.07 1.07 0 0 1 0-2.13h8.53a1.07 1.07 0 1 1 0 2.13z"/></svg>